<svg width="24" height="24" viewBox="0 0 24 24" fill="none" xmlns="http://www.w3.org/2000/svg">
<path d="M8.89465 20.4474C9.14164 19.9535 8.94141 19.3528 8.44743 19.1058C7.95345 18.8588 7.35278 19.059 7.10579 19.553L6.10579 21.553C5.8588 22.047 6.05903 22.6477 6.55301 22.8946C7.04698 23.1416 7.64766 22.9414 7.89465 22.4474L8.89465 20.4474Z" fill="#09090A"/>
<path d="M15.1058 20.4474C14.8589 19.9535 15.0591 19.3528 15.5531 19.1058C16.047 18.8588 16.6477 19.059 16.8947 19.553L17.8947 21.553C18.1417 22.047 17.9415 22.6477 17.4475 22.8946C16.9535 23.1416 16.3528 22.9414 16.1058 22.4474L15.1058 20.4474Z" fill="#09090A"/>
<path opacity="0.25" fill-rule="evenodd" clip-rule="evenodd" d="M11 2C11 1.44772 11.4477 1 12 1C12.5523 1 13 1.44772 13 2L13 3L18 3C19.6569 3 21 4.34315 21 6L21 14C21 15.6569 19.6569 17 18 17L6 17C4.34315 17 3 15.6569 3 14L3 6C3 4.34315 4.34315 3 6 3L11 3L11 2Z" fill="#09090A"/>
<path fill-rule="evenodd" clip-rule="evenodd" d="M17.6247 6.21917C18.056 6.56418 18.1259 7.19347 17.7809 7.62473L13.7809 12.6247C13.4568 13.0298 12.8769 13.1198 12.4453 12.8321L10.1274 11.2868L7.70711 13.7071C7.31658 14.0977 6.68342 14.0977 6.29289 13.7071C5.90237 13.3166 5.90237 12.6835 6.29289 12.2929L9.29289 9.29293C9.62996 8.95587 10.1581 8.90357 10.5547 9.16799L12.7919 10.6594L16.2191 6.37534C16.5641 5.94408 17.1934 5.87416 17.6247 6.21917Z" fill="#09090A"/>
</svg>
