<svg width="20" height="20" viewBox="0 0 20 20" fill="none" xmlns="http://www.w3.org/2000/svg">
<path d="M10.7198 0.93851C9.28925 0.839066 7.85306 1.03493 6.50885 1.51278C5.16464 1.99064 3.94394 2.73928 2.92972 3.70781C1.91549 4.67635 1.13154 5.84207 0.631146 7.12572C0.130752 8.40938 -0.0743494 9.78088 0.0297853 11.147C0.389785 16.1987 5.00979 20.009 10.3098 20.009H13.9998C14.5498 20.009 14.9998 19.5792 14.9998 19.054C14.9998 18.5288 14.5498 18.099 13.9998 18.099H10.3298C6.59979 18.099 3.17979 15.7881 2.24979 12.3407C0.759785 6.80193 6.15979 1.63563 11.9598 3.06806C15.5798 3.94662 17.9998 7.21256 17.9998 10.7745V11.825C17.9998 12.5794 17.2898 13.3243 16.4998 13.3243C15.7098 13.3243 14.9998 12.5794 14.9998 11.825V10.6313C14.9998 8.23437 13.2198 6.07617 10.7398 5.74193C9.95074 5.62989 9.14509 5.69947 8.3899 5.94488C7.63471 6.19028 6.95183 6.60442 6.39813 7.1528C5.84442 7.70118 5.4359 8.36795 5.20659 9.09758C4.97728 9.82721 4.9338 10.5986 5.07979 11.3475C5.25517 12.2499 5.69941 13.0849 6.35923 13.7522C7.01905 14.4196 7.86644 14.891 8.79979 15.11C10.6398 15.5207 12.3898 14.9572 13.5398 13.84C14.4298 15.005 16.2098 15.6162 17.8398 14.9954C19.1798 14.4893 19.9998 13.181 19.9998 11.8059V10.765C19.9998 5.69419 16.0098 1.28229 10.7198 0.93851ZM9.99979 13.3243C8.33979 13.3243 6.99979 12.0446 6.99979 10.4594C6.99979 8.87419 8.33979 7.59455 9.99979 7.59455C11.6598 7.59455 12.9998 8.87419 12.9998 10.4594C12.9998 12.0446 11.6598 13.3243 9.99979 13.3243Z" fill="white"/>
</svg>
