<svg width="24" height="24" viewBox="0 0 24 24" fill="none" xmlns="http://www.w3.org/2000/svg">
<path d="M12 21.5403C15.866 21.5403 19 18.5474 19 14.8556C19 11.1637 15.866 8.1709 12 8.1709C8.13401 8.1709 5 11.1637 5 14.8556C5 18.5474 8.13401 21.5403 12 21.5403Z" stroke="white" stroke-width="2"/>
<path d="M15.5 9.12609V5.78375C15.5 5.34483 15.4095 4.9102 15.2336 4.50469C15.0577 4.09918 14.7999 3.73072 14.4749 3.42036C14.1499 3.10999 13.764 2.8638 13.3394 2.69583C12.9148 2.52786 12.4596 2.44141 12 2.44141C11.5404 2.44141 11.0852 2.52786 10.6606 2.69583C10.236 2.8638 9.85013 3.10999 9.52513 3.42036C9.20012 3.73072 8.94231 4.09918 8.76642 4.50469C8.59053 4.9102 8.5 5.34483 8.5 5.78375V9.12609" stroke="white" stroke-width="2" stroke-linejoin="round"/>
<path d="M12 12.9458V16.7656" stroke="white" stroke-width="2" stroke-linecap="round" stroke-linejoin="round"/>
</svg>
