<svg width="33" height="33" viewBox="0 0 33 33" fill="none" xmlns="http://www.w3.org/2000/svg">
<g id="Group 11312">
<path id="Vector" d="M16.3999 32C24.9603 32 31.8999 25.0604 31.8999 16.5C31.8999 7.93959 24.9603 1 16.3999 1C7.83949 1 0.899902 7.93959 0.899902 16.5C0.899902 25.0604 7.83949 32 16.3999 32Z" stroke="#3422F2"/>
<g id="Group 11210">
<path id="Path 4564" d="M23.8992 12.4347C23.9028 12.1172 23.8434 11.8022 23.7244 11.5078C23.6054 11.2134 23.4292 10.9455 23.2059 10.7194C22.7476 10.2671 22.1318 10.0093 21.4873 10C21.1737 9.99869 20.8629 10.0591 20.5727 10.1779C20.2825 10.2966 20.0186 10.4713 19.7961 10.692L23.2059 14.1226C23.4322 13.9044 23.6106 13.6418 23.73 13.3512C23.8493 13.0607 23.9069 12.7486 23.8992 12.4347Z" fill="#3422F2"/>
<path id="Rectangle 4366" d="M22.4308 14.8983L19.0206 11.4946L11.1199 19.3804L14.53 22.784L22.4308 14.8983Z" fill="#3422F2"/>
<path id="Path 4565" d="M10.6765 20.4863L9.8999 24L13.4203 23.2249L10.6765 20.4863Z" fill="#3422F2"/>
</g>
</g>
</svg>
