<svg width="22" height="22" viewBox="0 0 22 22" fill="none" xmlns="http://www.w3.org/2000/svg">
<path fill-rule="evenodd" clip-rule="evenodd" d="M7 20L3 20C2.44772 20 2 19.5523 2 19L2 15C2 14.4477 1.55228 14 1 14C0.447715 14 2.68301e-10 14.4477 2.78557e-10 15L3.52839e-10 19C3.83608e-10 20.6569 1.34315 22 3 22L7 22C7.55228 22 8 21.5523 8 21C8 20.4477 7.55228 20 7 20ZM21 14C20.4477 14 20 14.4477 20 15L20 19C20 19.5523 19.5523 20 19 20L15 20C14.4477 20 14 20.4477 14 21C14 21.5523 14.4477 22 15 22L19 22C20.6569 22 22 20.6569 22 19L22 15C22 14.4477 21.5523 14 21 14ZM19 8.9381e-10L15 7.0555e-10C14.4477 6.79572e-10 14 0.447715 14 1C14 1.55228 14.4477 2 15 2L19 2C19.5523 2 20 2.44772 20 3L20 7C20 7.55228 20.4477 8 21 8C21.5523 8 22 7.55228 22 7L22 3C22 1.34315 20.6569 9.71743e-10 19 8.9381e-10ZM1 8C1.55228 8 2 7.55228 2 7L2 3C2 2.44772 2.44772 2 3 2L7 2C7.55228 2 8 1.55228 8 1C8 0.447715 7.55228 3.55234e-10 7 3.29256e-10L3 1.4111e-10C1.34315 0 0 1.34315 0 3L1.30903e-10 7C1.41159e-10 7.55228 0.447715 8 1 8ZM9 4L5 4C4.44772 4 4 4.44772 4 5L4 9C4 9.55229 4.44772 10 5 10L9 10C9.55229 10 10 9.55229 10 9L10 5C10 4.44772 9.55229 4 9 4ZM8 8L6 8L6 6L8 6L8 8ZM13 10L17 10C17.5523 10 18 9.55229 18 9L18 5C18 4.44772 17.5523 4 17 4L13 4C12.4477 4 12 4.44772 12 5L12 9C12 9.55229 12.4477 10 13 10ZM14 6L16 6L16 8L14 8L14 6ZM9 12L5 12C4.44772 12 4 12.4477 4 13L4 17C4 17.5523 4.44772 18 5 18L9 18C9.55229 18 10 17.5523 10 17L10 13C10 12.4477 9.55229 12 9 12ZM8 16L6 16L6 14L8 14L8 16ZM13 15C13.5523 15 14 14.5523 14 14C14.5523 14 15 13.5523 15 13C15 12.4477 14.5523 12 14 12L13 12C12.4477 12 12 12.4477 12 13L12 14C12 14.5523 12.4477 15 13 15ZM17 12C16.4477 12 16 12.4477 16 13L16 16C15.4477 16 15 16.4477 15 17C15 17.5523 15.4477 18 16 18L17 18C17.5523 18 18 17.5523 18 17L18 13C18 12.4477 17.5523 12 17 12ZM13 16C12.4477 16 12 16.4477 12 17C12 17.5523 12.4477 18 13 18C13.5523 18 14 17.5523 14 17C14 16.4477 13.5523 16 13 16Z" fill="#1C1B1B"/>
</svg>
